[Header]
FileType HTR
DataType HTRS
FileVersion 1
NumSegments 64
NumFrames 3
DataFrameRate 24
EulerRotationOrder ZYX
CalibrationUnits mm
RotationUnits Degrees
GlobalAxisofGravity Y
BoneLengthAxis Y
ScaleFactor 1.0
[SegmentNames&Hierarchy]
Hips	GLOBAL
Spine	Hips
Spine1	Spine
Spine2	Spine1
Neck	Spine2
Head	Neck
LeftEye	Head
RightEye	Head
LeftShoulder	Spine2
LeftArm	LeftShoulder
LeftForeArm	LeftArm
LeftHand	LeftForeArm
LeftHandThumb1	LeftHand
LeftHandThumb2	LeftHandThumb1
LeftHandThumb3	LeftHandThumb2
LeftHandThumb4	LeftHandThumb3
LeftHandIndex1	LeftHand
LeftHandIndex2	LeftHandIndex1
LeftHandIndex3	LeftHandIndex2
LeftHandIndex4	LeftHandIndex3
LeftHandMiddle1	LeftHand
LeftHandMiddle2	LeftHandMiddle1
LeftHandMiddle3	LeftHandMiddle2
LeftHandMiddle4	LeftHandMiddle3
LeftHandRing1	LeftHand
LeftHandRing2	LeftHandRing1
LeftHandRing3	LeftHandRing2
LeftHandRing4	LeftHandRing3
LeftHandPinky1	LeftHand
LeftHandPinky2	LeftHandPinky1
LeftHandPinky3	LeftHandPinky2
LeftHandPinky4	LeftHandPinky3
RightShoulder	Spine2
RightArm	RightShoulder
RightForeArm	RightArm
RightHand	RightForeArm
RightHandPinky1	RightHand
RightHandPinky2	RightHandPinky1
RightHandPinky3	RightHandPinky2
RightHandPinky4	RightHandPinky3
RightHandRing1	RightHand
RightHandRing2	RightHandRing1
RightHandRing3	RightHandRing2
RightHandRing4	RightHandRing3
RightHandMiddle1	RightHand
RightHandMiddle2	RightHandMiddle1
RightHandMiddle3	RightHandMiddle2
RightHandMiddle4	RightHandMiddle3
RightHandIndex1	RightHand
RightHandIndex2	RightHandIndex1
RightHandIndex3	RightHandIndex2
RightHandIndex4	RightHandIndex3
RightHandThumb1	RightHand
RightHandThumb2	RightHandThumb1
RightHandThumb3	RightHandThumb2
RightHandThumb4	RightHandThumb3
LeftUpLeg	Hips
LeftLeg	LeftUpLeg
LeftFoot	LeftLeg
LeftToeBase	LeftFoot
RightUpLeg	Hips
RightLeg	RightUpLeg
RightFoot	RightLeg
RightToeBase	RightFoot
[BasePosition]
Hips	0	0	0	0	0	0	1
Spine	0	0	0	0	0	0	1
Spine1	0	0	0	0	0	0	1
Spine2	0	0	0	0	0	0	1
Neck	0	0	0	0	0	0	1
Head	0	0	0	0	0	0	1
LeftEye	0	0	0	0	0	0	1
RightEye	0	0	0	0	0	0	1
LeftShoulder	0	0	0	0	0	0	1
LeftArm	0	0	0	0	0	0	1
LeftForeArm	0	0	0	0	0	0	1
LeftHand	0	0	0	0	0	0	1
LeftHandThumb1	0	0	0	0	0	0	1
LeftHandThumb2	0	0	0	0	0	0	1
LeftHandThumb3	0	0	0	0	0	0	1
LeftHandThumb4	0	0	0	0	0	0	1
LeftHandIndex1	0	0	0	0	0	0	1
LeftHandIndex2	0	0	0	0	0	0	1
LeftHandIndex3	0	0	0	0	0	0	1
LeftHandIndex4	0	0	0	0	0	0	1
LeftHandMiddle1	0	0	0	0	0	0	1
LeftHandMiddle2	0	0	0	0	0	0	1
LeftHandMiddle3	0	0	0	0	0	0	1
LeftHandMiddle4	0	0	0	0	0	0	1
LeftHandRing1	0	0	0	0	0	0	1
LeftHandRing2	0	0	0	0	0	0	1
LeftHandRing3	0	0	0	0	0	0	1
LeftHandRing4	0	0	0	0	0	0	1
LeftHandPinky1	0	0	0	0	0	0	1
LeftHandPinky2	0	0	0	0	0	0	1
LeftHandPinky3	0	0	0	0	0	0	1
LeftHandPinky4	0	0	0	0	0	0	1
RightShoulder	0	0	0	0	0	0	1
RightArm	0	0	0	0	0	0	1
RightForeArm	0	0	0	0	0	0	1
RightHand	0	0	0	0	0	0	1
RightHandPinky1	0	0	0	0	0	0	1
RightHandPinky2	0	0	0	0	0	0	1
RightHandPinky3	0	0	0	0	0	0	1
RightHandPinky4	0	0	0	0	0	0	1
RightHandRing1	0	0	0	0	0	0	1
RightHandRing2	0	0	0	0	0	0	1
RightHandRing3	0	0	0	0	0	0	1
RightHandRing4	0	0	0	0	0	0	1
RightHandMiddle1	0	0	0	0	0	0	1
RightHandMiddle2	0	0	0	0	0	0	1
RightHandMiddle3	0	0	0	0	0	0	1
RightHandMiddle4	0	0	0	0	0	0	1
RightHandIndex1	0	0	0	0	0	0	1
RightHandIndex2	0	0	0	0	0	0	1
RightHandIndex3	0	0	0	0	0	0	1
RightHandIndex4	0	0	0	0	0	0	1
RightHandThumb1	0	0	0	0	0	0	1
RightHandThumb2	0	0	0	0	0	0	1
RightHandThumb3	0	0	0	0	0	0	1
RightHandThumb4	0	0	0	0	0	0	1
LeftUpLeg	0	0	0	0	0	0	1
LeftLeg	0	0	0	0	0	0	1
LeftFoot	0	0	0	0	0	0	1
LeftToeBase	0	0	0	0	0	0	1
RightUpLeg	0	0	0	0	0	0	1
RightLeg	0	0	0	0	0	0	1
RightFoot	0	0	0	0	0	0	1
RightToeBase	0	0	0	0	0	0	1
[Hips]
12	-908.9691772	1020.081116	45.73116684	-69.65068054	-84.2394104	71.10548401	1.0
13	-986.2439575	1028.19104	40.88230515	-56.74399567	-84.58914185	58.34184647	1.0
14	-1065.468628	1027.127563	35.51963043	-36.4176712	-83.95107269	38.47824097	1.0
[Spine]
12	0	101.8159943	1.315000057	3.812011957	10.82134056	-3.943541765	1.0
13	0	101.8159943	1.315000057	3.713817835	8.886230469	-3.244786263	1.0
14	0	101.8159943	1.315000057	3.555790186	6.739702702	-2.83112669	1.0
[Spine1]
12	0	100.8349991	-10.00800037	1.214579225	16.48140717	-2.095268011	1.0
13	0	100.8349991	-10.00800037	1.25246954	15.88136578	-1.9379282	1.0
14	0	100.8349991	-10.00800037	1.219571114	15.23289585	-1.886358261	1.0
[Spine2]
12	0	91	-13.73399925	0.9533388615	16.44837952	-2.457198858	1.0
13	0	91	-13.73399925	0.9975973964	15.84452629	-2.296771049	1.0
14	0	91	-13.73399925	0.9675171375	15.19120598	-2.243855476	1.0
[Neck]
12	0	166.7169952	-25.16200066	3.903072119	5.629980564	-0.9798722267	1.0
13	0	166.7169952	-25.16200066	4.443630219	6.024438858	-1.016364574	1.0
14	0	166.7169952	-25.16200066	4.597349167	6.302984238	-0.7438287139	1.0
[Head]
12	0	96.17900085	16.84999847	-14.62477303	37.66819382	-10.7686491	1.0
13	0	96.17900085	16.84999847	-15.16235161	38.74268723	-11.25638676	1.0
14	0	96.17900085	16.84999847	-16.15988922	39.29076767	-11.08810234	1.0
[LeftEye]
12	30.6760006	64.09500122	92.83599854	0	0	0	1.0
13	30.6760006	64.09500122	92.83599854	0	0	0	1.0
14	30.6760006	64.09500122	92.83599854	0	0	0	1.0
[RightEye]
12	-30.6760006	64.09500122	92.83499908	0	0	0	1.0
13	-30.6760006	64.09500122	92.83499908	0	0	0	1.0
14	-30.6760006	64.09500122	92.83499908	0	0	0	1.0
[LeftShoulder]
12	45.70400238	109.4599991	-26.28000069	3.741081476	2.396154404	-12.66399479	1.0
13	45.70400238	109.4599991	-26.28000069	3.855330944	0.6281530857	-11.55077648	1.0
14	45.70400238	109.4599991	-26.28000069	3.921487093	-1.83169198	-9.232048988	1.0
[LeftArm]
12	105.923996	-5.24600029	-22.32099915	16.54355621	-2.089448214	-63.97292328	1.0
13	105.923996	-5.24600029	-22.32099915	21.0414505	-8.77572155	-62.89165878	1.0
14	105.923996	-5.24600029	-22.32099915	26.2035408	-14.33535004	-61.28192902	1.0
[LeftForeArm]
12	278.414978	-0.0009999999311	0	1.526684173e-06	-17.51439667	-0.0002044891007	1.0
13	278.414978	-0.0009999999311	0	-2.759374183e-06	-20.34760475	-0.0001969916775	1.0
14	278.414978	-0.0009999999311	0	4.906547929e-06	-25.27437782	-0.0002025765134	1.0
[LeftHand]
12	283.2879944	0	0	36.49213409	8.812609673	-13.15680218	1.0
13	283.2879944	0	0	26.96490288	3.715744495	-9.888544083	1.0
14	283.2879944	0	0	13.56968021	0.5494972467	-8.377614021	1.0
[LeftHandThumb1]
12	24.6609993	-15.75	26.8239994	6.075967789	1.947294235	2.605627775	1.0
13	24.6609993	-15.75	26.8239994	5.673379421	2.539843082	3.287745476	1.0
14	24.6609993	-15.75	26.8239994	6.860453606	1.300171852	1.457980394	1.0
[LeftHandThumb2]
12	32.29800034	-18.64699936	18.64699936	5.31716156	18.90542603	10.646492	1.0
13	32.29800034	-18.64699936	18.64699936	5.801188946	19.37764931	10.50460911	1.0
14	32.29800034	-18.64699936	18.64699936	4.497211456	19.65893936	10.70051861	1.0
[LeftHandThumb3]
12	26.52600098	-15.31499958	15.31499958	3.046308041	12.67956352	0.8315501213	1.0
13	26.52600098	-15.31499958	15.31499958	3.033703566	12.64379883	0.840978384	1.0
14	26.52600098	-15.31499958	15.31499958	2.961823702	12.44014549	0.893415153	1.0
[LeftHandThumb4]
12	19.54599953	-11.28499985	11.28499985	0	0	0	1.0
13	19.54599953	-11.28499985	11.28499985	0	0	0	1.0
14	19.54599953	-11.28499985	11.28499985	0	0	0	1.0
[LeftHandIndex1]
12	91.09299469	-5.170999527	22.60099792	-0.9616246819	2.046123505	-15.26107788	1.0
13	91.09299469	-5.170999527	22.60099792	-0.7680152655	1.481791615	-11.91102314	1.0
14	91.09299469	-5.170999527	22.60099792	-0.5753493905	0.8656492829	-8.524983406	1.0
[LeftHandIndex2]
12	36.76399994	0	0	-0.1226704568	1.49455142	-7.050219536	1.0
13	36.76399994	0	0	-0.04988215864	1.18636775	-3.939664125	1.0
14	36.76399994	0	0	0.001377161243	0.9050858021	-1.131559372	1.0
[LeftHandIndex3]
12	28.83100128	0	0	-0.07582262158	0.5939218402	-8.039279938	1.0
13	28.83100128	0	0	-0.03662379831	0.2359511703	-4.458652973	1.0
14	28.83100128	0	0	-0.01935388707	-0.1680943072	-0.4375387132	1.0
[LeftHandIndex4]
12	23.92700005	0	0	0	0	0	1.0
13	23.92700005	0	0	0	0	0	1.0
14	23.92700005	0	0	0	0	0	1.0
[LeftHandMiddle1]
12	95.33399963	0	0	-3.147224903	6.642971992	-28.87371635	1.0
13	95.33399963	0	0	-2.74287796	6.334197998	-25.83574677	1.0
14	95.33399963	0	0	-2.331930876	6.006305218	-22.68448067	1.0
[LeftHandMiddle2]
12	36.98199844	0	0	-0.3899193406	2.246299028	-14.68690872	1.0
13	36.98199844	0	0	-0.2567239106	1.919942617	-11.20823193	1.0
14	36.98199844	0	0	-0.1354938596	1.559288025	-7.454489708	1.0
[LeftHandMiddle3]
12	29.50900078	0	0	-0.08366592973	1.171881795	-9.043832779	1.0
13	29.50900078	0	0	-0.03342596442	0.8330132961	-5.601682186	1.0
14	29.50900078	0	0	-0.001698510954	0.4562230706	-1.803069711	1.0
[LeftHandMiddle4]
12	28.3390007	0	0	0	0	0	1.0
13	28.3390007	0	0	0	0	0	1.0
14	28.3390007	0	0	0	0	0	1.0
[LeftHandRing1]
12	91.04499817	-0.4390000105	-18.65100098	-4.495661736	12.62655258	-37.51707458	1.0
13	91.04499817	-0.4390000105	-18.65100098	-4.038060188	12.51955605	-34.21834183	1.0
14	91.04499817	-0.4390000105	-18.65100098	-3.546297312	12.29689884	-30.65323257	1.0
[LeftHandRing2]
12	31.54000092	0	0	-0.2011648417	2.082744837	-17.73671341	1.0
13	31.54000092	0	0	-0.1225777194	1.764976263	-14.43494987	1.0
14	31.54000092	0	0	-0.05483231321	1.393296003	-10.62460041	1.0
[LeftHandRing3]
12	29.37700081	0	0	0.00615868764	1.403856754	-14.2216568	1.0
13	29.37700081	0	0	0.04514877126	1.084925771	-10.99440384	1.0
14	29.37700081	0	0	0.06811182946	0.701253593	-7.134401321	1.0
[LeftHandRing4]
12	26.47500038	0	0	0	0	0	1.0
13	26.47500038	0	0	0	0	0	1.0
14	26.47500038	0	0	0	0	0	1.0
[LeftHandPinky1]
12	80.77799988	-4.887000084	-38.06099701	-6.029550552	15.65605068	-43.76047897	1.0
13	80.77799988	-4.887000084	-38.06099701	-5.303527832	15.52828026	-40.58485031	1.0
14	80.77799988	-4.887000084	-38.06099701	-4.58075285	15.06106281	-37.32862854	1.0
[LeftHandPinky2]
12	36	0	0	-0.6860348582	2.243975878	-25.36680794	1.0
13	36	0	0	-0.5402374268	1.956498504	-22.1415329	1.0
14	36	0	0	-0.3817816675	1.588044524	-18.1295166	1.0
[LeftHandPinky3]
12	21.14200211	0	0	-0.2115803361	1.958686233	-11.17638397	1.0
13	21.14200211	0	0	-0.1314209551	1.648289084	-7.978421688	1.0
14	21.14200211	0	0	-0.05631208792	1.258081079	-4.015169144	1.0
[LeftHandPinky4]
12	19.75699997	0	0	0	0	0	1.0
13	19.75699997	0	0	0	0	0	1.0
14	19.75699997	0	0	0	0	0	1.0
[RightShoulder]
12	-45.70000076	109.4620056	-26.28000069	6.50864315	21.27686691	15.11834145	1.0
13	-45.70000076	109.4620056	-26.28000069	6.680789948	20.98928261	15.99716187	1.0
14	-45.70000076	109.4620056	-26.28000069	6.726185322	20.26083565	16.64080429	1.0
[RightArm]
12	-105.9280014	-5.248000145	-22.32099915	0.6368756294	3.141340256	61.84337997	1.0
13	-105.9280014	-5.248000145	-22.32099915	-6.765396595	-1.684655786	63.06933212	1.0
14	-105.9280014	-5.248000145	-22.32099915	-13.65028667	-7.584877491	64.39152527	1.0
[RightForeArm]
12	-278.414978	0	0	1.660999828e-06	16.02367973	-2.004687303e-06	1.0
13	-278.414978	0	0	-3.433195616e-06	8.033869743	1.687563235e-05	1.0
14	-278.414978	0	0	-1.107734874e-06	3.549283028	-1.615002589e-06	1.0
[RightHand]
12	-283.2879944	0	0.0009999999311	12.89592266	30.3040123	-14.25604153	1.0
13	-283.2879944	0	0.0009999999311	20.46613121	31.66155434	-10.50241852	1.0
14	-283.2879944	0	0.0009999999311	26.83859444	29.52358055	-8.762126923	1.0
[RightHandPinky1]
12	-80.76699829	-4.885000229	-38.06000137	-4.711631775	-16.23208809	35.19228363	1.0
13	-80.76699829	-4.885000229	-38.06000137	-2.737292051	-16.59242439	23.22610283	1.0
14	-80.76699829	-4.885000229	-38.06000137	-1.852527142	-16.34853935	17.2838974	1.0
[RightHandPinky2]
12	-36	0	0.0009999999311	-0.3035248816	-1.374064326	15.86950779	1.0
13	-36	0	0.0009999999311	-0.03191172704	-0.1859518439	3.665907383	1.0
14	-36	0	0.0009999999311	-0.000412524183	0.1776666641	0.01881266199	1.0
[RightHandPinky3]
12	-21.14200211	0	0	-0.1975051016	1.840218782	3.371769905	1.0
13	-21.14200211	0	0	-0.1538988799	3.09774518	-9.194955826	1.0
14	-21.14200211	0	0	-0.2012183517	3.51824975	-13.416749	1.0
[RightHandPinky4]
12	-19.75699997	0	0	0	0	0	1.0
13	-19.75699997	0	0	0	0	0	1.0
14	-19.75699997	0	0	0	0	0	1.0
[RightHandRing1]
12	-91.03599548	-0.4390000105	-18.65100098	-3.636846781	-12.60909557	31.21057892	1.0
13	-91.03599548	-0.4390000105	-18.65100098	-2.463498116	-12.36530304	22.27800179	1.0
14	-91.03599548	-0.4390000105	-18.65100098	-1.857829809	-12.3050518	17.35701561	1.0
[RightHandRing2]
12	-31.54000092	0	0	-0.06473343819	-1.457486629	11.28125572	1.0
13	-31.54000092	0	0	0.006318304222	-0.5981408358	2.580318213	1.0
14	-31.54000092	0	0	0.001901392243	-0.3388661444	0.0001148580122	1.0
[RightHandRing3]
12	-29.37700081	0	0	-0.01085649524	1.393242121	4.639076233	1.0
13	-29.37700081	0	0	-0.1338358223	2.475253344	-6.316970348	1.0
14	-29.37700081	0	0	-0.2254638821	2.84574461	-10.15408039	1.0
[RightHandRing4]
12	-26.47500038	0	0	0	0	0	1.0
13	-26.47500038	0	0	0	0	0	1.0
14	-26.47500038	0	0	0	0	0	1.0
[RightHandMiddle1]
12	-95.32500458	0	0	-2.601416588	-7.298544884	24.62991905	1.0
13	-95.32500458	0	0	-1.822473288	-8.103288651	18.40982437	1.0
14	-95.32500458	0	0	-1.317163229	-8.595703125	14.1565876	1.0
[RightHandMiddle2]
12	-36.98199844	0	0	-0.2002548426	-1.76150012	9.550172806	1.0
13	-36.98199844	0	0	-0.005041795317	-1.037766576	2.152532578	1.0
14	-36.98199844	0	0	0.0342268087	-0.8147393465	-0.0001050046558	1.0
[RightHandMiddle3]
12	-29.50900078	0	0	-0.06119186059	-0.8157209754	7.0095644	1.0
13	-29.50900078	0	0	-0.004074317869	0.009797871113	-1.310359597	1.0
14	-29.50900078	0	0	-0.01240595337	0.2985941172	-4.212837219	1.0
[RightHandMiddle4]
12	-28.3390007	0	0.0009999999311	0	0	0	1.0
13	-28.3390007	0	0.0009999999311	0	0	0	1.0
14	-28.3390007	0	0.0009999999311	0	0	0	1.0
[RightHandIndex1]
12	-91.08300018	-5.167999744	22.60099792	-1.035214305	-2.531489611	14.39387512	1.0
13	-91.08300018	-5.167999744	22.60099792	-0.9811549187	-2.96671772	11.75255394	1.0
14	-91.08300018	-5.167999744	22.60099792	-0.5687537789	-2.849636078	7.532883167	1.0
[RightHandIndex2]
12	-36.76399994	0	0	-0.07046868652	-1.281458259	4.895795822	1.0
13	-36.76399994	0	0	0.003479900537	-0.8915612102	0.9971562028	1.0
14	-36.76399994	0	0	0.018126579	-0.7830796838	0.0002501895069	1.0
[RightHandIndex3]
12	-28.83100128	0	0	-0.147088632	0.2887112796	9.315189362	1.0
13	-28.83100128	0	0	-0.09244760126	0.7257851362	4.935189247	1.0
14	-28.83100128	0	0	-0.08247359097	0.859349072	3.603632212	1.0
[RightHandIndex4]
12	-23.92700005	0	0	0	0	0	1.0
13	-23.92700005	0	0	0	0	0	1.0
14	-23.92700005	0	0	0	0	0	1.0
[RightHandThumb1]
12	-24.64799881	-15.72700024	26.82600021	7.328165054	-0.8983154297	-0.7722470164	1.0
13	-24.64799881	-15.72700024	26.82600021	7.326323032	-0.8940075636	-0.7703222036	1.0
14	-24.64799881	-15.72700024	26.82600021	7.334326744	-0.9132982492	-0.7795365453	1.0
[RightHandThumb2]
12	-32.29800034	-18.64699936	18.64699936	6.480164051	-19.33486748	-11.33563614	1.0
13	-32.29800034	-18.64699936	18.64699936	11.59014034	-19.0852108	-12.04638767	1.0
14	-32.29800034	-18.64699936	18.64699936	14.02745724	-16.89628792	-12.82732487	1.0
[RightHandThumb3]
12	-26.52600098	-15.31399918	15.31399918	2.837718248	-7.694530964	0.4317341447	1.0
13	-26.52600098	-15.31399918	15.31399918	3.483280897	-2.460803032	1.144532919	1.0
14	-26.52600098	-15.31399918	15.31399918	3.906576872	-0.6431115866	1.382687092	1.0
[RightHandThumb4]
12	-19.54599953	-11.28499985	11.28499985	0	0	0	1.0
13	-19.54599953	-11.28499985	11.28499985	0	0	0	1.0
14	-19.54599953	-11.28499985	11.28499985	0	0	0	1.0
[LeftUpLeg]
12	82.07800293	-67.51699829	-15.99599934	-9.802445412	-1.219642878	-13.74146271	1.0
13	82.07800293	-67.51699829	-15.99599934	-3.508565903	1.877541304	-12.2016077	1.0
14	82.07800293	-67.51699829	-15.99599934	1.231250405	5.595374107	-9.108320236	1.0
[LeftLeg]
12	0	-443.7049866	2.845999956	12.44326878	5.383293629	4.833644867	1.0
13	0	-443.7049866	2.845999956	9.019649506	4.589108467	4.434661865	1.0
14	0	-443.7049866	2.845999956	8.981328964	0.526704371	2.31955266	1.0
[LeftFoot]
12	0	-444.2789917	-29.8219986	-3.997634649	4.146772385	4.028145313	1.0
13	0	-444.2789917	-29.8219986	-4.673905849	1.193489552	3.109017849	1.0
14	0	-444.2789917	-29.8219986	-6.621457577	0.2084956914	2.804722786	1.0
[LeftToeBase]
12	0	-87.28699493	107.1060028	-3.050976038	1.63744171e-05	-1.159611998e-06	1.0
13	0	-87.28699493	107.1060028	-6.530365944	-2.58884902e-05	2.991694373e-06	1.0
14	0	-87.28699493	107.1060028	-9.09864521	1.475023601e-05	-1.588861096e-07	1.0
[RightUpLeg]
12	-82.07800293	-67.51699829	-15.99599934	-17.22514534	-4.304330349	-3.027912855	1.0
13	-82.07800293	-67.51699829	-15.99599934	-25.75868797	-2.097501278	-1.85950768	1.0
14	-82.07800293	-67.51699829	-15.99599934	-32.39193726	-1.648485422	-1.468369842	1.0
[RightLeg]
12	0	-443.7049866	2.861999989	63.11886597	0.1348249465	-11.30230427	1.0
13	0	-443.7049866	2.861999989	60.01692963	-0.962108314	-10.86269093	1.0
14	0	-443.7049866	2.861999989	51.07989502	-3.025784254	-10.10069561	1.0
[RightFoot]
12	0	-444.2770081	-29.83799934	3.460319996	-5.887966156	3.323009968	1.0
13	0	-444.2770081	-29.83799934	-3.362133741	-4.963004589	2.172654152	1.0
14	0	-444.2770081	-29.83799934	-6.255808353	-3.259413004	1.503804803	1.0
[RightToeBase]
12	0	-87.28699493	107.1060028	-1.350650787	-1.708561103e-05	-9.13547774e-06	1.0
13	0	-87.28699493	107.1060028	0.4280299544	-1.471491851e-05	1.042477379e-05	1.0
14	0	-87.28699493	107.1060028	1.154262304	2.894459612e-05	-2.578739895e-06	1.0
[EndOfFile]
